<?xml version="1.0" encoding="UTF-8"?>
<svg id="Layer_2" data-name="Layer 2" xmlns="http://www.w3.org/2000/svg" xmlns:xlink="http://www.w3.org/1999/xlink" viewBox="0 0 132.54 23.63">
  <defs>
    <style>
      .cls-1 {
        fill: url(#linear-gradient);
      }
    </style>
    <linearGradient id="linear-gradient" x1="0" y1="11.82" x2="132.54" y2="11.82" gradientUnits="userSpaceOnUse">
      <stop offset=".3" stop-color="#16bbee"/>
      <stop offset=".5" stop-color="#7477ba"/>
      <stop offset=".66" stop-color="#c33f8f"/>
    </linearGradient>
  </defs>
  <g id="Layer_1-2" data-name="Layer 1">
    <g>
      <path class="cls-1" d="m19.23,2.18v21.23h-4.02v-9.1H4.02v9.1H0V2.18h4.02v8.77h11.19V2.18h4.02Z"/>
      <path class="cls-1" d="m24.15,2.28c0-1.27,1.05-2.28,2.47-2.28s2.47.94,2.47,2.18c0,1.33-1.02,2.37-2.47,2.37s-2.47-1-2.47-2.27Zm.53,4.94h3.86v16.2h-3.86V7.22Z"/>
      <path class="cls-1" d="m43.16,7.04v3.61c-.34-.06-.62-.09-.9-.09-2.94,0-4.79,1.7-4.79,5.01v7.86h-3.86V7.22h3.68v2.37c1.11-1.7,3.12-2.55,5.87-2.55Z"/>
      <path class="cls-1" d="m61.74,16.53h-12.95c.46,2.37,2.47,3.88,5.35,3.88,1.86,0,3.31-.58,4.48-1.76l2.07,2.34c-1.48,1.73-3.8,2.64-6.65,2.64-5.53,0-9.12-3.49-9.12-8.31s3.62-8.28,8.53-8.28,8.35,3.31,8.35,8.37c0,.3-.03.76-.06,1.12Zm-12.98-2.52h9.37c-.31-2.34-2.13-3.94-4.67-3.94s-4.33,1.58-4.7,3.94Z"/>
      <path class="cls-1" d="m79.7,20.08v3.34h-15.95v-2.64l8.59-8.01c2.1-1.97,2.47-3.22,2.47-4.4,0-1.94-1.36-3.06-4.02-3.06-2.1,0-3.86.7-5.07,2.21l-2.81-2.12c1.67-2.21,4.67-3.52,8.22-3.52,4.7,0,7.73,2.34,7.73,6.1,0,2.06-.59,3.94-3.59,6.7l-5.78,5.4h10.2Z"/>
      <path class="cls-1" d="m97.7,20.08v3.34h-15.95v-2.64l8.59-8.01c2.1-1.97,2.47-3.22,2.47-4.4,0-1.94-1.36-3.06-4.02-3.06-2.1,0-3.86.7-5.07,2.21l-2.81-2.12c1.67-2.21,4.67-3.52,8.22-3.52,4.7,0,7.73,2.34,7.73,6.1,0,2.06-.59,3.94-3.59,6.7l-5.78,5.4h10.2Z"/>
      <path class="cls-1" d="m100.2,21.11c0-1.52,1.14-2.52,2.54-2.52s2.54,1,2.54,2.52-1.14,2.52-2.54,2.52-2.54-1.06-2.54-2.52Z"/>
      <path class="cls-1" d="m123.17,13.92v9.49h-3.65v-1.97c-.93,1.4-2.72,2.18-5.19,2.18-3.77,0-6.15-2.03-6.15-4.85s1.85-4.82,6.86-4.82h4.27v-.24c0-2.21-1.36-3.52-4.11-3.52-1.86,0-3.77.61-5.01,1.61l-1.52-2.76c1.76-1.33,4.33-2,6.99-2,4.76,0,7.51,2.21,7.51,6.89Zm-3.86,4.43v-1.88h-3.99c-2.63,0-3.34.97-3.34,2.15,0,1.37,1.17,2.24,3.15,2.24s3.52-.85,4.17-2.52Z"/>
      <path class="cls-1" d="m127.6,2.28c0-1.27,1.05-2.28,2.47-2.28s2.47.94,2.47,2.18c0,1.33-1.02,2.37-2.47,2.37s-2.47-1-2.47-2.27Zm.53,4.94h3.86v16.2h-3.86V7.22Z"/>
    </g>
  </g>
</svg>